<svg xmlns="http://www.w3.org/2000/svg" width="480" height="360" font-family="Arial,sans-serif">
  <rect width="480" height="360" fill="white"/>
  <text x="240.0" y="22" font-size="13" font-weight="bold" text-anchor="middle" fill="#222">(d) Feedback-Only: F1=HIGH</text>
  <line x1="40" y1="255.0" x2="470" y2="255.0" stroke="#ddd" stroke-width="1"/><text x="36" y="259.0" font-size="9" text-anchor="end" fill="#888">0.25</text><line x1="40" y1="180.0" x2="470" y2="180.0" stroke="#ddd" stroke-width="1"/><text x="36" y="184.0" font-size="9" text-anchor="end" fill="#888">0.50</text><line x1="40" y1="105.0" x2="470" y2="105.0" stroke="#ddd" stroke-width="1"/><text x="36" y="109.0" font-size="9" text-anchor="end" fill="#888">0.75</text>
  <line x1="40" y1="120.0" x2="470" y2="120.0" stroke="gray" stroke-width="1" stroke-dasharray="5,5"/>
  <text x="468" y="116.0" font-size="8" text-anchor="end" fill="gray">BCS=0.70</text>
  <path d="M40.0,279.0 62.6,264.0 85.3,252.0 107.9,243.0 130.5,237.0 153.2,234.0 175.8,231.0 198.4,228.0 221.1,225.0 243.7,225.0 266.3,222.0 288.9,222.0 311.6,219.0 334.2,219.0 356.8,216.0 379.5,219.0 402.1,216.0 424.7,216.0 447.4,219.0 470.0,216.0 L470.0,321.0 447.4,306.0 424.7,294.0 402.1,285.0 379.5,279.0 356.8,276.0 334.2,273.0 311.6,270.0 288.9,267.0 266.3,267.0 243.7,264.0 221.1,264.0 198.4,261.0 175.8,261.0 153.2,258.0 130.5,261.0 107.9,258.0 85.3,258.0 62.6,261.0 40.0,258.0 Z" fill="#db8a36" fill-opacity="0.2"/>
  <path d="M40.0,300.0 62.6,285.0 85.3,273.0 107.9,264.0 130.5,258.0 153.2,255.0 175.8,252.0 198.4,249.0 221.1,246.0 243.7,246.0 266.3,243.0 288.9,243.0 311.6,240.0 334.2,240.0 356.8,237.0 379.5,240.0 402.1,237.0 424.7,237.0 447.4,240.0 470.0,237.0" fill="none" stroke="#db8a36" stroke-width="2" stroke-linejoin="round" stroke-linecap="round"/>
  <circle cx="40.0" cy="300.0" r="2.5" fill="#db8a36"/><circle cx="62.6" cy="285.0" r="2.5" fill="#db8a36"/><circle cx="85.3" cy="273.0" r="2.5" fill="#db8a36"/><circle cx="107.9" cy="264.0" r="2.5" fill="#db8a36"/><circle cx="130.5" cy="258.0" r="2.5" fill="#db8a36"/><circle cx="153.2" cy="255.0" r="2.5" fill="#db8a36"/><circle cx="175.8" cy="252.0" r="2.5" fill="#db8a36"/><circle cx="198.4" cy="249.0" r="2.5" fill="#db8a36"/><circle cx="221.1" cy="246.0" r="2.5" fill="#db8a36"/><circle cx="243.7" cy="246.0" r="2.5" fill="#db8a36"/><circle cx="266.3" cy="243.0" r="2.5" fill="#db8a36"/><circle cx="288.9" cy="243.0" r="2.5" fill="#db8a36"/><circle cx="311.6" cy="240.0" r="2.5" fill="#db8a36"/><circle cx="334.2" cy="240.0" r="2.5" fill="#db8a36"/><circle cx="356.8" cy="237.0" r="2.5" fill="#db8a36"/><circle cx="379.5" cy="240.0" r="2.5" fill="#db8a36"/><circle cx="402.1" cy="237.0" r="2.5" fill="#db8a36"/><circle cx="424.7" cy="237.0" r="2.5" fill="#db8a36"/><circle cx="447.4" cy="240.0" r="2.5" fill="#db8a36"/><circle cx="470.0" cy="237.0" r="2.5" fill="#db8a36"/>
  <line x1="40" y1="330" x2="470" y2="330" stroke="#888" stroke-width="1"/>
  <text x="240.0" y="358" font-size="10" text-anchor="middle" fill="#444">Round</text>
  <text x="40.0" y="348" font-size="9" text-anchor="middle" fill="#888">1</text><text x="130.5" y="348" font-size="9" text-anchor="middle" fill="#888">5</text><text x="243.7" y="348" font-size="9" text-anchor="middle" fill="#888">10</text><text x="356.8" y="348" font-size="9" text-anchor="middle" fill="#888">15</text><text x="470.0" y="348" font-size="9" text-anchor="middle" fill="#888">20</text>
  <line x1="40" y1="30" x2="40" y2="330" stroke="#888" stroke-width="1"/>
  <text x="14" y="180.0" font-size="10" text-anchor="middle" fill="#444" transform="rotate(-90,14,180.0)">BCS</text>
</svg>