<svg xmlns="http://www.w3.org/2000/svg" width="480" height="360" font-family="Arial,sans-serif">
  <rect width="480" height="360" fill="white"/>
  <text x="240.0" y="22" font-size="13" font-weight="bold" text-anchor="middle" fill="#222">(c) Comm-Structure-Only: F2=HIGH</text>
  <line x1="40" y1="255.0" x2="470" y2="255.0" stroke="#ddd" stroke-width="1"/><text x="36" y="259.0" font-size="9" text-anchor="end" fill="#888">0.25</text><line x1="40" y1="180.0" x2="470" y2="180.0" stroke="#ddd" stroke-width="1"/><text x="36" y="184.0" font-size="9" text-anchor="end" fill="#888">0.50</text><line x1="40" y1="105.0" x2="470" y2="105.0" stroke="#ddd" stroke-width="1"/><text x="36" y="109.0" font-size="9" text-anchor="end" fill="#888">0.75</text>
  <line x1="40" y1="120.0" x2="470" y2="120.0" stroke="gray" stroke-width="1" stroke-dasharray="5,5"/>
  <text x="468" y="116.0" font-size="8" text-anchor="end" fill="gray">BCS=0.70</text>
  <path d="M40.0,264.0 62.6,237.0 85.3,210.0 107.9,186.0 130.5,174.0 153.2,165.0 175.8,153.0 198.4,144.0 221.1,138.0 243.7,135.0 266.3,132.0 288.9,129.0 311.6,129.0 334.2,126.0 356.8,126.0 379.5,126.0 402.1,123.0 424.7,126.0 447.4,123.0 470.0,126.0 L470.0,324.0 447.4,297.0 424.7,270.0 402.1,246.0 379.5,234.0 356.8,225.0 334.2,213.0 311.6,204.0 288.9,198.0 266.3,195.0 243.7,192.0 221.1,189.0 198.4,189.0 175.8,186.0 153.2,186.0 130.5,186.0 107.9,183.0 85.3,186.0 62.6,183.0 40.0,186.0 Z" fill="#2db84d" fill-opacity="0.2"/>
  <path d="M40.0,294.0 62.6,267.0 85.3,240.0 107.9,216.0 130.5,204.0 153.2,195.0 175.8,183.0 198.4,174.0 221.1,168.0 243.7,165.0 266.3,162.0 288.9,159.0 311.6,159.0 334.2,156.0 356.8,156.0 379.5,156.0 402.1,153.0 424.7,156.0 447.4,153.0 470.0,156.0" fill="none" stroke="#2db84d" stroke-width="2" stroke-linejoin="round" stroke-linecap="round"/>
  <circle cx="40.0" cy="294.0" r="2.5" fill="#2db84d"/><circle cx="62.6" cy="267.0" r="2.5" fill="#2db84d"/><circle cx="85.3" cy="240.0" r="2.5" fill="#2db84d"/><circle cx="107.9" cy="216.0" r="2.5" fill="#2db84d"/><circle cx="130.5" cy="204.0" r="2.5" fill="#2db84d"/><circle cx="153.2" cy="195.0" r="2.5" fill="#2db84d"/><circle cx="175.8" cy="183.0" r="2.5" fill="#2db84d"/><circle cx="198.4" cy="174.0" r="2.5" fill="#2db84d"/><circle cx="221.1" cy="168.0" r="2.5" fill="#2db84d"/><circle cx="243.7" cy="165.0" r="2.5" fill="#2db84d"/><circle cx="266.3" cy="162.0" r="2.5" fill="#2db84d"/><circle cx="288.9" cy="159.0" r="2.5" fill="#2db84d"/><circle cx="311.6" cy="159.0" r="2.5" fill="#2db84d"/><circle cx="334.2" cy="156.0" r="2.5" fill="#2db84d"/><circle cx="356.8" cy="156.0" r="2.5" fill="#2db84d"/><circle cx="379.5" cy="156.0" r="2.5" fill="#2db84d"/><circle cx="402.1" cy="153.0" r="2.5" fill="#2db84d"/><circle cx="424.7" cy="156.0" r="2.5" fill="#2db84d"/><circle cx="447.4" cy="153.0" r="2.5" fill="#2db84d"/><circle cx="470.0" cy="156.0" r="2.5" fill="#2db84d"/>
  <line x1="40" y1="330" x2="470" y2="330" stroke="#888" stroke-width="1"/>
  <text x="240.0" y="358" font-size="10" text-anchor="middle" fill="#444">Round</text>
  <text x="40.0" y="348" font-size="9" text-anchor="middle" fill="#888">1</text><text x="130.5" y="348" font-size="9" text-anchor="middle" fill="#888">5</text><text x="243.7" y="348" font-size="9" text-anchor="middle" fill="#888">10</text><text x="356.8" y="348" font-size="9" text-anchor="middle" fill="#888">15</text><text x="470.0" y="348" font-size="9" text-anchor="middle" fill="#888">20</text>
  <line x1="40" y1="30" x2="40" y2="330" stroke="#888" stroke-width="1"/>
  <text x="14" y="180.0" font-size="10" text-anchor="middle" fill="#444" transform="rotate(-90,14,180.0)">BCS</text>
</svg>