<svg xmlns="http://www.w3.org/2000/svg" width="480" height="360" font-family="Arial,sans-serif">
  <rect width="480" height="360" fill="white"/>
  <text x="240.0" y="22" font-size="13" font-weight="bold" text-anchor="middle" fill="#222">(a) Pure Lab: All Factors HIGH</text>
  <line x1="40" y1="255.0" x2="470" y2="255.0" stroke="#ddd" stroke-width="1"/><text x="36" y="259.0" font-size="9" text-anchor="end" fill="#888">0.25</text><line x1="40" y1="180.0" x2="470" y2="180.0" stroke="#ddd" stroke-width="1"/><text x="36" y="184.0" font-size="9" text-anchor="end" fill="#888">0.50</text><line x1="40" y1="105.0" x2="470" y2="105.0" stroke="#ddd" stroke-width="1"/><text x="36" y="109.0" font-size="9" text-anchor="end" fill="#888">0.75</text>
  <line x1="40" y1="120.0" x2="470" y2="120.0" stroke="gray" stroke-width="1" stroke-dasharray="5,5"/>
  <text x="468" y="116.0" font-size="8" text-anchor="end" fill="gray">BCS=0.70</text>
  <path d="M40.0,246.0 62.6,210.0 85.3,162.0 107.9,93.0 130.5,75.0 153.2,66.0 175.8,60.0 198.4,63.0 221.1,57.0 243.7,57.0 266.3,54.0 288.9,57.0 311.6,51.0 334.2,57.0 356.8,51.0 379.5,54.0 402.1,51.0 424.7,48.0 447.4,51.0 470.0,48.0 L470.0,306.0 447.4,264.0 424.7,210.0 402.1,135.0 379.5,117.0 356.8,102.0 334.2,90.0 311.6,93.0 288.9,87.0 266.3,81.0 243.7,78.0 221.1,81.0 198.4,75.0 175.8,75.0 153.2,69.0 130.5,72.0 107.9,69.0 85.3,66.0 62.6,69.0 40.0,66.0 Z" fill="#3684db" fill-opacity="0.2"/>
  <path d="M40.0,276.0 62.6,237.0 85.3,186.0 107.9,114.0 130.5,96.0 153.2,84.0 175.8,75.0 198.4,78.0 221.1,72.0 243.7,69.0 266.3,66.0 288.9,69.0 311.6,63.0 334.2,66.0 356.8,60.0 379.5,63.0 402.1,60.0 424.7,57.0 447.4,60.0 470.0,57.0" fill="none" stroke="#3684db" stroke-width="2" stroke-linejoin="round" stroke-linecap="round"/>
  <circle cx="40.0" cy="276.0" r="2.5" fill="#3684db"/><circle cx="62.6" cy="237.0" r="2.5" fill="#3684db"/><circle cx="85.3" cy="186.0" r="2.5" fill="#3684db"/><circle cx="107.9" cy="114.0" r="2.5" fill="#3684db"/><circle cx="130.5" cy="96.0" r="2.5" fill="#3684db"/><circle cx="153.2" cy="84.0" r="2.5" fill="#3684db"/><circle cx="175.8" cy="75.0" r="2.5" fill="#3684db"/><circle cx="198.4" cy="78.0" r="2.5" fill="#3684db"/><circle cx="221.1" cy="72.0" r="2.5" fill="#3684db"/><circle cx="243.7" cy="69.0" r="2.5" fill="#3684db"/><circle cx="266.3" cy="66.0" r="2.5" fill="#3684db"/><circle cx="288.9" cy="69.0" r="2.5" fill="#3684db"/><circle cx="311.6" cy="63.0" r="2.5" fill="#3684db"/><circle cx="334.2" cy="66.0" r="2.5" fill="#3684db"/><circle cx="356.8" cy="60.0" r="2.5" fill="#3684db"/><circle cx="379.5" cy="63.0" r="2.5" fill="#3684db"/><circle cx="402.1" cy="60.0" r="2.5" fill="#3684db"/><circle cx="424.7" cy="57.0" r="2.5" fill="#3684db"/><circle cx="447.4" cy="60.0" r="2.5" fill="#3684db"/><circle cx="470.0" cy="57.0" r="2.5" fill="#3684db"/>
  <line x1="40" y1="330" x2="470" y2="330" stroke="#888" stroke-width="1"/>
  <text x="240.0" y="358" font-size="10" text-anchor="middle" fill="#444">Round</text>
  <text x="40.0" y="348" font-size="9" text-anchor="middle" fill="#888">1</text><text x="130.5" y="348" font-size="9" text-anchor="middle" fill="#888">5</text><text x="243.7" y="348" font-size="9" text-anchor="middle" fill="#888">10</text><text x="356.8" y="348" font-size="9" text-anchor="middle" fill="#888">15</text><text x="470.0" y="348" font-size="9" text-anchor="middle" fill="#888">20</text>
  <line x1="40" y1="30" x2="40" y2="330" stroke="#888" stroke-width="1"/>
  <text x="14" y="180.0" font-size="10" text-anchor="middle" fill="#444" transform="rotate(-90,14,180.0)">BCS</text>
</svg>