<svg xmlns="http://www.w3.org/2000/svg" width="480" height="360" font-family="Arial,sans-serif">
  <rect width="480" height="360" fill="white"/>
  <text x="240.0" y="22" font-size="13" font-weight="bold" text-anchor="middle" fill="#222">(b) Pure Wild: All Factors LOW</text>
  <line x1="40" y1="255.0" x2="470" y2="255.0" stroke="#ddd" stroke-width="1"/><text x="36" y="259.0" font-size="9" text-anchor="end" fill="#888">0.25</text><line x1="40" y1="180.0" x2="470" y2="180.0" stroke="#ddd" stroke-width="1"/><text x="36" y="184.0" font-size="9" text-anchor="end" fill="#888">0.50</text><line x1="40" y1="105.0" x2="470" y2="105.0" stroke="#ddd" stroke-width="1"/><text x="36" y="109.0" font-size="9" text-anchor="end" fill="#888">0.75</text>
  <line x1="40" y1="120.0" x2="470" y2="120.0" stroke="gray" stroke-width="1" stroke-dasharray="5,5"/>
  <text x="468" y="116.0" font-size="8" text-anchor="end" fill="gray">BCS=0.70</text>
  <path d="M40.0,306.0 62.6,303.0 85.3,300.0 107.9,303.0 130.5,297.0 153.2,300.0 175.8,297.0 198.4,294.0 221.1,297.0 243.7,300.0 266.3,294.0 288.9,297.0 311.6,300.0 334.2,294.0 356.8,297.0 379.5,300.0 402.1,297.0 424.7,294.0 447.4,297.0 470.0,300.0 L470.0,324.0 447.4,321.0 424.7,318.0 402.1,321.0 379.5,315.0 356.8,318.0 334.2,315.0 311.6,312.0 288.9,315.0 266.3,318.0 243.7,312.0 221.1,315.0 198.4,318.0 175.8,312.0 153.2,315.0 130.5,318.0 107.9,315.0 85.3,312.0 62.6,315.0 40.0,318.0 Z" fill="#db3636" fill-opacity="0.2"/>
  <path d="M40.0,315.0 62.6,312.0 85.3,309.0 107.9,312.0 130.5,306.0 153.2,309.0 175.8,306.0 198.4,303.0 221.1,306.0 243.7,309.0 266.3,303.0 288.9,306.0 311.6,309.0 334.2,303.0 356.8,306.0 379.5,309.0 402.1,306.0 424.7,303.0 447.4,306.0 470.0,309.0" fill="none" stroke="#db3636" stroke-width="2" stroke-linejoin="round" stroke-linecap="round"/>
  <circle cx="40.0" cy="315.0" r="2.5" fill="#db3636"/><circle cx="62.6" cy="312.0" r="2.5" fill="#db3636"/><circle cx="85.3" cy="309.0" r="2.5" fill="#db3636"/><circle cx="107.9" cy="312.0" r="2.5" fill="#db3636"/><circle cx="130.5" cy="306.0" r="2.5" fill="#db3636"/><circle cx="153.2" cy="309.0" r="2.5" fill="#db3636"/><circle cx="175.8" cy="306.0" r="2.5" fill="#db3636"/><circle cx="198.4" cy="303.0" r="2.5" fill="#db3636"/><circle cx="221.1" cy="306.0" r="2.5" fill="#db3636"/><circle cx="243.7" cy="309.0" r="2.5" fill="#db3636"/><circle cx="266.3" cy="303.0" r="2.5" fill="#db3636"/><circle cx="288.9" cy="306.0" r="2.5" fill="#db3636"/><circle cx="311.6" cy="309.0" r="2.5" fill="#db3636"/><circle cx="334.2" cy="303.0" r="2.5" fill="#db3636"/><circle cx="356.8" cy="306.0" r="2.5" fill="#db3636"/><circle cx="379.5" cy="309.0" r="2.5" fill="#db3636"/><circle cx="402.1" cy="306.0" r="2.5" fill="#db3636"/><circle cx="424.7" cy="303.0" r="2.5" fill="#db3636"/><circle cx="447.4" cy="306.0" r="2.5" fill="#db3636"/><circle cx="470.0" cy="309.0" r="2.5" fill="#db3636"/>
  <line x1="40" y1="330" x2="470" y2="330" stroke="#888" stroke-width="1"/>
  <text x="240.0" y="358" font-size="10" text-anchor="middle" fill="#444">Round</text>
  <text x="40.0" y="348" font-size="9" text-anchor="middle" fill="#888">1</text><text x="130.5" y="348" font-size="9" text-anchor="middle" fill="#888">5</text><text x="243.7" y="348" font-size="9" text-anchor="middle" fill="#888">10</text><text x="356.8" y="348" font-size="9" text-anchor="middle" fill="#888">15</text><text x="470.0" y="348" font-size="9" text-anchor="middle" fill="#888">20</text>
  <line x1="40" y1="30" x2="40" y2="330" stroke="#888" stroke-width="1"/>
  <text x="14" y="180.0" font-size="10" text-anchor="middle" fill="#444" transform="rotate(-90,14,180.0)">BCS</text>
</svg>